<svg width="152" height="152" fill="none" xmlns="http://www.w3.org/2000/svg"><path fill="#EE3643" d="M0 0h152v152H0z"/><path fill-rule="evenodd" clip-rule="evenodd" d="M35.891 35C33.23 35 33 37.81 33 37.81v21.274C33 63.127 36.991 63 36.991 63h12.383c2.66 0 2.202 2.055 2.202 2.055s-3.395 17.916-3.76 20.947c-.368 3.033-2.569 4.963-2.569 4.963s-2.935 1.653-4.127 2.296C39.928 93.906 39.928 97 39.928 97H83v-1.718c0-2.02-9.502-4.317-13.078-4.685-3.578-.366-2.843-2.757-2.843-2.757l1.467-10.748h4.127l1.559-10.841h-4.127L70.56 63h11.836C90.376 62.172 96 56.697 96 56.697V40.158C89.671 35.657 79.735 35 79.735 35H35.891zm79.65 10h18.544c.791 0 1.915 1.67 1.915 3.5s-1.124 3.5-1.915 3.5h-18.544c-.853 3.05-2.848 5-5.172 5H100V40h10.369c2.325 0 4.319 1.95 5.172 5zm-72.94 74C40 119 40 116.176 40 116.176v-15.158h43v15.25c0 2.479-2.786 2.732-2.786 2.732H42.6zM82 42.523v-.046c0-.812-.62-1.477-1.376-1.477H39.376C38.62 41 38 41.665 38 42.477v.046c0 .812.62 1.477 1.376 1.477h41.248C81.38 44 82 43.335 82 42.523z" fill="#fff"/></svg>