<svg width="20" height="19" viewBox="0 0 20 19" fill="none" xmlns="http://www.w3.org/2000/svg">
<path d="M17.881 14.666C15.737 13.931 13.625 13 12.674 12.276C12.017 11.775 11.904 10.658 12.157 9.861C13.275 8.958 14.021 7.384 14.021 5.583C14.021 2.776 12.221 0.5 10 0.5C7.77902 0.5 5.97901 2.776 5.97901 5.583C5.97901 7.384 6.72501 8.957 7.84201 9.86C8.09501 10.658 7.98302 11.775 7.32502 12.276C6.37502 13 4.26201 13.93 2.11801 14.666C-0.0259852 15.402 1.48343e-05 18.5 1.48343e-05 18.5H20C20 18.5 20.025 15.401 17.881 14.666Z" fill="#C5C5C5"/>
</svg>
